<svg width="556" height="553" viewBox="0 0 556 553" fill="#6BC1B9" xmlns="http://www.w3.org/2000/svg">
  <path
    fill-rule="evenodd"
    clip-rule="evenodd"
    d="M321.5 552.617C454.372 531.737 556 416.737 556 278C556 124.465 431.535 0 278 0C124.465 0 0 124.465 0 278C0 416.737 101.628 531.737 234.5 552.617V358.5H164V278H234.5C235.274 269.735 235.087 259.491 234.879 248.162C233.704 183.877 231.889 84.6688 401.5 114H402V182.5H363.5C357 182.5 343.5 183.5 333.5 193.5C319.709 204.366 320.588 238.495 321.249 264.123C321.379 269.157 321.5 273.863 321.5 278H399L386.5 358.5H321.5V552.617Z"
    fill="#6BC1B9"
  />
</svg>
