<svg width="513" height="513" viewBox="0 0 513 513" fill="none" xmlns="http://www.w3.org/2000/svg">
  <path
    d="M22 341L21.9999 340.931C21.9997 340.889 21.9995 340.847 21.9991 340.805L21.0026 233.686C21.3361 221.3 22 194.455 22 185C22 180.568 23.2173 166.75 24.7083 151.84C25.5108 143.814 26.3753 135.629 27.0094 129.626C27.391 126.013 27.6891 123.191 27.8401 121.668C27.8662 121.56 27.9005 121.422 27.9446 121.252C28.1668 120.397 28.5179 119.181 29.0068 117.608C29.9796 114.478 31.2946 110.584 32.7054 106.536C34.0819 102.586 35.7063 98.0622 37.0293 94.3783C37.8199 92.1769 38.5028 90.2753 38.9608 88.975C39.3403 88.3333 39.9293 87.3943 40.748 86.1496C42.4638 83.541 44.7313 80.2804 47.1304 76.897C49.0974 74.1231 51.0595 71.3974 52.7826 69.0039C53.1482 68.4961 53.503 68.0033 53.8448 67.5281C53.9578 67.3711 54.0746 67.2088 54.1944 67.0424C55.135 65.7358 56.2615 64.1709 57.1863 62.8231C57.4193 62.6013 57.7217 62.319 58.1018 61.9721C59.5959 60.6084 61.6546 58.8254 63.9836 56.8594C68.6055 52.9578 73.701 48.8323 76.1186 46.8982C76.0689 46.938 76.1013 46.9171 76.2311 46.8332C76.59 46.6014 77.6938 45.8883 79.8696 44.6441C82.4302 43.1799 85.6243 41.4571 89.032 39.6778C95.8645 36.1104 102.957 32.6275 106.381 31.0298C108.028 30.2608 110.838 29.4057 114.935 28.4418C116.197 28.1449 117.243 27.9119 118.35 27.6656C119.09 27.5009 119.856 27.3302 120.732 27.1305C122.028 26.835 123.753 26.4344 125.478 25.9368C132.387 24.789 154.722 23 164 23C169.366 23 179.64 22.549 189.864 22.1001C190.779 22.0599 191.694 22.0198 192.605 21.98C204.24 21.4713 215.569 21 222 21C228.764 21 257.847 21.494 287.329 21.9969L288.779 22.0217C317.442 22.5106 346.129 23 353 23C364.885 23 379.635 24.8077 388.725 26.243C391.413 26.6675 397.357 28.4198 404.818 30.95C408.252 32.1146 411.611 33.3041 414.555 34.3528C414.962 34.4976 415.367 34.6423 415.769 34.7856C417.812 35.514 419.755 36.2072 421.22 36.7065C421.419 36.8171 422.064 37.1675 423.258 37.9296C425.188 39.1607 427.617 40.8557 430.472 42.9287C432.543 44.4334 435.282 46.475 438.114 48.5852C441.766 51.3071 445.571 54.1432 448.294 56.0884C454.629 60.6133 460.428 69.3893 469.115 83.506C475.938 94.5925 478.78 101.335 483.402 116.59C486.724 127.552 490.035 146.349 491.5 156.049V173.956C491.417 193.97 491.317 224.317 491.288 250.376C491.259 275.652 491.282 298.673 491.553 302.491C491.55 302.446 491.55 302.473 491.551 302.587C491.555 302.872 491.564 303.702 491.538 305.303C491.506 307.271 491.433 309.832 491.326 312.848C491.112 318.866 490.773 326.383 490.4 333.968C489.651 349.213 488.785 364.258 488.553 367.504C488.41 369.509 487.436 375.483 486.012 382.799C484.639 389.853 483.265 396.049 482.74 397.975C482.757 397.91 482.729 397.985 482.642 398.214C482.419 398.799 481.815 400.388 480.611 403.249C479.173 406.669 477.313 410.902 475.355 415.246C471.606 423.563 467.923 431.348 466.338 434.42C466.223 434.57 466.052 434.787 465.814 435.077C465.005 436.065 463.828 437.411 462.289 439.086C459.227 442.417 455.238 446.499 451.008 450.669C442.094 459.456 433.899 466.866 431.581 468.565C431.607 468.547 431.57 468.567 431.463 468.626C431.001 468.882 429.231 469.86 425.536 471.532C421.59 473.319 416.753 475.325 411.784 477.306C406.849 479.274 401.958 481.148 397.946 482.671C396.82 483.099 395.72 483.515 394.692 483.903C392.884 484.587 391.297 485.187 390.176 485.62C389.752 485.705 389.114 485.82 388.234 485.957C386.138 486.284 383.372 486.631 380.227 486.973C374.21 487.628 367.522 488.189 363.026 488.516C338.865 489.021 286.451 490.213 267.126 491.018C256.108 491.477 226.147 491.019 193.871 489.583C161.418 488.139 128.872 485.797 112.182 482.825C99.9076 480.639 84.679 471.269 70.0531 458.426C55.7465 445.864 45.2218 432.85 42.0722 427.799L24.3027 438.88L42.0721 427.799C41.318 426.59 40.5296 425.53 39.7107 424.561L23.7183 438.081L39.7106 424.561C34.4847 418.379 29.5286 404.838 26.1981 386.573C23.0574 369.35 22 351.711 22 341ZM27.7699 121.976C27.7699 121.976 27.7709 121.971 27.7732 121.96C27.7711 121.97 27.77 121.976 27.7699 121.976ZM38.6152 89.5893C38.6128 89.5913 38.6373 89.542 38.696 89.4358C38.6469 89.5343 38.6176 89.5874 38.6152 89.5893ZM58.5074 60.8044C58.4439 60.9102 58.3808 61.0129 58.3185 61.1124C58.3857 61.0048 58.4488 60.902 58.5074 60.8044ZM390.665 485.512C390.667 485.512 390.632 485.521 390.554 485.539C390.624 485.52 390.663 485.512 390.665 485.512Z"
    stroke="#6BC1B9"
    stroke-width="42"
    stroke-linejoin="round"
  />
  <circle cx="255" cy="255.5" r="105" stroke="#6BC1B9" stroke-width="42" />
  <circle cx="394" cy="120.5" r="31" fill="#6BC1B9" />
</svg>
