<svg width="513" height="358" viewBox="0 0 513 358" fill="#6BC1B9" xmlns="http://www.w3.org/2000/svg">
  <path
    fill-rule="evenodd"
    clip-rule="evenodd"
    d="M491.5 32.4417C508.7 54.0417 512.667 138.108 512.5 177.442C511.833 188.608 510.4 215.042 510 231.442C509.6 247.842 505.167 278.608 503 291.942C500 317.442 486.5 331.442 476.5 337.442C460.5 350.942 401.667 354.442 371 354.942L264 357.134V357.442L256.488 357.288L249 357.442V357.135L141.771 354.945C111.047 354.445 52.1027 350.95 36.0726 337.466C26.0538 331.474 12.5285 317.491 9.52283 292.023C7.35208 278.706 2.91043 247.977 2.50968 231.597C2.10892 215.218 0.672915 188.817 0.0049764 177.664C-0.161985 138.379 3.81214 54.4167 21.0444 32.8434C28.258 23.2552 43.0858 14.8656 49.598 11.8693C57.613 8.54009 88.2705 1.68191 146.78 0.882902C191.558 0.271419 227.846 0.400885 249 0.644563V0.441721C263.667 0.108388 307.6 -0.358279 366 0.441721C424.4 1.24172 455 8.10839 463 11.4417C469.5 14.4417 484.3 22.8417 491.5 32.4417ZM338.5 177.442L204.5 99.4417V255.442L338.5 177.442Z"
    fill="#6BC1B9"
  />
</svg>
